<svg xmlns="http://www.w3.org/2000/svg" viewBox="0 0 120.2082 91.9239">
  <path d="M3.535 0L0 3.535 3.535 7.07 7.07 3.535l3.54 3.535-3.54 3.54 3.54 3.53 3.53-3.53 3.54 3.53 3.53-3.53-3.53-3.54 3.53-3.535 3.54 3.535 3.54-3.535L24.75 0h-7.07l-3.54 3.535L10.61 0H3.535zm49.5 0l3.54 3.535 3.53 3.535 3.54-3.535L67.185 0h-14.15zm42.43 0l-3.54 3.535 3.54 3.535 3.53-3.535 3.51 3.535-3.51 3.54 3.51 3.53 3.6-3.53 3.5 3.53 3.5-3.53-3.5-3.54 3.5-3.535 3.6 3.535 3.5-3.533v-.004L116.705 0h-7.1l-3.5 3.535-3.6-3.535h-7.04zm-60.1 3.535l-3.54 3.535 24.75 24.75-3.54 3.54-21.21-21.22-3.53 3.54 28.28 28.28-3.54 3.54-31.82-31.82-3.53 3.53 24.75 24.75-24.75 24.75 3.53 3.54 24.75-24.75 3.54 3.53-21.21 21.22 3.53 3.53 28.29-28.28 7.07 7.07 21.21 21.21 3.53-3.53-28.28-28.29 3.54-3.53 31.81 31.82 3.51-3.54-24.72-24.75 24.72-24.75-3.51-3.53-24.74 24.75-3.54-3.54 21.21-21.21-3.53-3.54-28.28 28.29-3.54-3.54 31.82-31.82-3.54-3.535-24.75 24.76-24.74-24.76zm31.82 53.04l-3.54-3.54-31.82 31.82 3.54 3.54 24.75-24.75 24.74 24.75 3.54-3.54-24.75-24.75 3.54-3.53zm-53.04-17.68l-3.53 3.54-3.54 3.53 3.54 3.54 3.53 3.53 3.54-3.53 3.53-3.54-3.53-3.53-3.54-3.54zm91.96 0l-3.6 3.54-3.51 3.53 3.51 3.54 3.6 3.53 3.5-3.53 3.5-3.54-3.5-3.53-3.5-3.54zm-95.49 38.89l-3.54 3.54 3.54 3.53-3.54 3.54-3.535-3.54-3.535 3.54 3.535 3.53h7.075l3.53-3.53 3.54 3.53h7.07l3.54-3.53-3.54-3.54-3.54 3.54-3.53-3.54 3.53-3.53-3.53-3.54-3.54 3.54-3.53-3.54zm91.89 0l-3.51 3.54 3.51 3.53-3.51 3.54-3.53-3.54-3.54 3.54 3.54 3.53h7.04l3.6-3.53 3.5 3.53h7.1l3.5-3.53-3.5-3.54-3.6 3.54-3.5-3.54 3.5-3.53-3.5-3.54-3.5 3.54-3.6-3.54zm-42.4 7.07l-3.53 3.54-3.54 3.53h14.15l-3.54-3.53-3.54-3.54z" fill="#FFFFFF"/>
</svg>
