<svg xmlns="http://www.w3.org/2000/svg" viewBox="0 0 120.208 91.924">
  <path fill="none" d="M0 0v91.92h120.2V0H0z"/>
  <g stroke-width="2" fill="#d40000">
    <path d="M35.36 3.535L31.82 7.07l24.75 24.75-3.54 3.54-21.21-21.22-3.53 3.54 28.28 28.28-3.54 3.54-31.82-31.82-3.53 3.53 24.75 24.75-24.75 24.75 3.53 3.54L45.96 49.5l3.54 3.53-21.21 21.22 3.53 3.53L60.11 49.5l7.07 7.07 21.21 21.21 3.53-3.53-28.28-28.29 3.54-3.53 31.81 31.82 3.51-3.54-24.72-24.75 24.72-24.75-3.51-3.53-24.74 24.75-3.54-3.54 21.21-21.21-3.53-3.54-28.28 28.29-3.54-3.54L88.39 7.07l-3.54-3.535-24.75 24.76-24.74-24.76zm31.82 53.04l-3.54-3.54-31.82 31.82 3.54 3.54 24.75-24.75 24.74 24.75 3.54-3.54-24.75-24.75 3.54-3.53z"/>
    <path d="M106.1 38.89l-3.6 3.54-3.51 3.53 3.51 3.54 3.6 3.53 3.5-3.53 3.5-3.54-3.5-3.53-3.5-3.54zm-46-45.96l-3.53 3.535L53.03 0l3.54 3.535L60.1 7.07l3.54-3.535L67.18 0l-3.54-3.535L60.1-7.07zM14.14 38.89l-3.53 3.54-3.54 3.53 3.54 3.54 3.53 3.53 3.54-3.53 3.53-3.54-3.53-3.53-3.54-3.54zM60.1 84.85l-3.53 3.54-3.54 3.53 3.54 3.54 3.53 3.53 3.54-3.53 3.54-3.54-3.54-3.53-3.54-3.54zM10.61-14.14l-3.54 3.53 3.54 3.54-3.54 3.535L3.535-7.07 0-3.535 3.535 0 0 3.535 3.535 7.07 7.07 3.535l3.54 3.535-3.54 3.54 3.54 3.53 3.53-3.53 3.54 3.53 3.53-3.53-3.53-3.54 3.53-3.535 3.54 3.535 3.54-3.535L24.75 0l3.54-3.535-3.54-3.535-3.54 3.535-3.53-3.535 3.53-3.54-3.53-3.53-3.54 3.53-3.53-3.53zm3.53 10.6l3.54 3.535-3.54 3.535-3.53-3.535 3.53-3.535zm-3.53 81.32l-3.54 3.54 3.54 3.53-3.54 3.54-3.535-3.54L0 88.39l3.535 3.53L0 95.46l3.535 3.53 3.535-3.53 3.54 3.53-3.54 3.51 3.54 3.6 3.53-3.6 3.54 3.6 3.53-3.6-3.53-3.51 3.53-3.53 3.54 3.53 3.54-3.53-3.54-3.54 3.54-3.53-3.54-3.54-3.54 3.54-3.53-3.54 3.53-3.53-3.53-3.54-3.54 3.54-3.53-3.54zm3.53 10.61l3.54 3.53-3.54 3.54-3.53-3.54 3.53-3.53zM102.5-14.14l-3.51 3.53 3.51 3.54-3.51 3.535-3.53-3.535-3.54 3.535L95.46 0l-3.54 3.535 3.54 3.535 3.53-3.535 3.51 3.535-3.51 3.54 3.51 3.53 3.6-3.53 3.5 3.53 3.5-3.53-3.5-3.54 3.5-3.535 3.6 3.535 3.5-3.535L116.7 0l3.5-3.535-3.5-3.535-3.6 3.535-3.5-3.535 3.5-3.54-3.5-3.53-3.5 3.53-3.6-3.53zm3.6 10.6l3.5 3.535-3.5 3.535-3.6-3.535 3.6-3.535zm-3.6 81.32l-3.51 3.54 3.51 3.53-3.51 3.54-3.53-3.54-3.54 3.54 3.54 3.53-3.54 3.54 3.54 3.53 3.53-3.53 3.51 3.53-3.51 3.51 3.51 3.6 3.6-3.6 3.5 3.6 3.5-3.6-3.5-3.51 3.5-3.53 3.6 3.53 3.5-3.53-3.5-3.54 3.5-3.53-3.5-3.54-3.6 3.54-3.5-3.54 3.5-3.53-3.5-3.54-3.5 3.54-3.6-3.54zm3.6 10.61l3.5 3.53-3.5 3.54-3.6-3.54 3.6-3.53z"/>
  </g>
</svg>
