<svg xmlns="http://www.w3.org/2000/svg" viewBox="0 0 91.848 120.24">
  <path fill="none" d="M-14.18 14.14v91.92h120.2V14.14h-120.2z"/>
  <g stroke-width="2" fill="#d40000">
    <path d="M21.18 17.675l-3.54 3.535 24.75 24.75-3.54 3.54-21.21-21.22-3.53 3.54L42.39 60.1l-3.54 3.54L7.03 31.82 3.5 35.35 28.25 60.1 3.5 84.85l3.53 3.54 24.75-24.75 3.54 3.53-21.21 21.22 3.53 3.53 28.29-28.28L53 70.71l21.21 21.21 3.53-3.53L49.46 60.1 53 56.57l31.81 31.82 3.51-3.54L63.6 60.1l24.72-24.75-3.51-3.53-24.74 24.75-3.54-3.54 21.21-21.21-3.53-3.54-28.28 28.29-3.54-3.54 31.82-31.82-3.54-3.535-24.75 24.76-24.74-24.76zM53 70.715l-3.54-3.54-31.82 31.82 3.54 3.54 24.75-24.75 24.74 24.75 3.54-3.54-24.75-24.75 3.54-3.53z"/>
    <path d="M91.92 53.03l-3.6 3.54-3.51 3.53 3.51 3.54 3.6 3.53 3.5-3.53 3.5-3.54-3.5-3.53-3.5-3.54zm-46-45.96l-3.53 3.535-3.54 3.535 3.54 3.535 3.53 3.535 3.54-3.535L53 14.14l-3.54-3.535-3.54-3.535zM-.04 53.03l-3.53 3.54-3.54 3.53 3.54 3.54 3.53 3.53 3.54-3.53 3.53-3.54-3.53-3.53-3.54-3.54zm45.96 45.96l-3.53 3.54-3.54 3.53 3.54 3.54 3.53 3.53 3.54-3.53 3.54-3.54-3.54-3.53-3.54-3.54zM-3.57 0l-3.54 3.53 3.54 3.54-3.54 3.535-3.535-3.535-3.535 3.535 3.535 3.535-3.535 3.535 3.535 3.535 3.535-3.535 3.54 3.535-3.54 3.54 3.54 3.53 3.53-3.53 3.54 3.53 3.53-3.53-3.53-3.53 3.53-3.535 3.54 3.535 3.54-3.535-3.54-3.535 3.54-3.535-3.54-3.535-3.54 3.535L3.5 7.08l3.53-3.54L3.5.01-.04 3.54-3.57.01zm3.53 10.6l3.54 3.535-3.54 3.535-3.53-3.535L-.04 10.6zm-3.53 81.32l-3.54 3.54 3.54 3.53-3.54 3.54-3.535-3.54-3.535 3.54 3.535 3.53-3.535 3.54 3.535 3.53 3.535-3.53 3.54 3.53-3.54 3.51 3.54 3.6 3.53-3.6 3.54 3.6 3.53-3.6-3.53-3.51 3.53-3.53 3.54 3.53 3.54-3.53-3.54-3.54 3.54-3.53-3.54-3.54-3.54 3.54-3.53-3.54 3.53-3.53-3.53-3.54-3.54 3.54-3.53-3.54zm3.53 10.61l3.54 3.53-3.54 3.54-3.53-3.54 3.53-3.53zM88.32.03l-3.51 3.53 3.51 3.54-3.51 3.535L81.28 7.1l-3.54 3.535 3.54 3.535-3.54 3.535 3.54 3.535 3.53-3.535 3.51 3.535-3.51 3.54 3.51 3.53 3.6-3.53 3.5 3.53 3.5-3.53-3.5-3.54 3.5-3.535 3.6 3.535 3.5-3.535-3.5-3.535 3.5-3.535-3.5-3.535-3.6 3.535-3.5-3.535 3.5-3.54-3.5-3.53-3.5 3.53-3.6-3.53zm3.6 10.6l3.5 3.535-3.5 3.535-3.6-3.535 3.6-3.535zm-3.6 81.32l-3.51 3.54 3.51 3.53-3.51 3.54-3.53-3.54-3.54 3.54 3.54 3.53-3.54 3.54 3.54 3.53 3.53-3.53 3.51 3.53-3.51 3.51 3.51 3.6 3.6-3.6 3.5 3.6 3.5-3.6-3.5-3.51 3.5-3.53 3.6 3.53 3.5-3.53-3.5-3.54 3.5-3.53-3.5-3.54-3.6 3.54-3.5-3.54 3.5-3.53-3.5-3.54-3.5 3.54-3.6-3.54zm3.6 10.61l3.5 3.53-3.5 3.54-3.6-3.54 3.6-3.53z"/>
  </g>
</svg>
